# xmcd CD database file
#
# Track frame offsets:
#	150
#	12924
#	27581
#	41364
#	54832
#	69809
#	83793
#	98181
#
# Disc length: 1472 seconds
#
# Revision: 0
# Processed by: cddbd v1.5.2PL0 Copyright (c) Steve Scherf et al.
# Submitted via: CDex 1.70beta2
#
DISCID=5505be08
DTITLE=Ella Fitzgerald - DAISO Female Singers Collection 2
DYEAR=2005
DGENRE=Jazz
TTITLE0=Ella
TTITLE1=I Let Tear Fall In The River
TTITLE2=My Heart and I Decided
TTITLE3=Who Are You
TTITLE4=Undecided
TTITLE5=Chew Chew Chew,Chew Your Bubble Gum
TTITLE6=Coochicoochi Coo
TTITLE7=Deedole De Dum
EXTD=YEAR: 2005
EXTT0=
EXTT1=
EXTT2=
EXTT3=
EXTT4=
EXTT5=
EXTT6=
EXTT7=
PLAYORDER=
